<svg width="30" height="7" viewBox="0 0 30 7" fill="none" xmlns="http://www.w3.org/2000/svg">
<path d="M0.312 0.831999C0.744 0.855999 1.296 0.892 1.968 0.94C2.64 0.963999 3.336 0.987999 4.056 1.012C4.8 1.036 5.484 1.048 6.108 1.048C6.708 1.048 7.452 1.048 8.34 1.048C9.228 1.048 10.188 1.048 11.22 1.048C12.276 1.048 13.356 1.048 14.46 1.048C15.588 1.048 16.704 1.048 17.808 1.048C18.912 1.048 19.956 1.048 20.94 1.048C21.924 1.048 22.8 1.048 23.568 1.048C24.36 1.048 24.984 1.048 25.44 1.048C26.28 1.048 27.072 1.024 27.816 0.975999C28.56 0.903999 29.172 0.855999 29.652 0.831999V6.484C29.244 6.46 28.632 6.424 27.816 6.376C27 6.328 26.208 6.304 25.44 6.304C24.984 6.304 24.36 6.304 23.568 6.304C22.776 6.304 21.888 6.304 20.904 6.304C19.92 6.304 18.876 6.304 17.772 6.304C16.692 6.304 15.588 6.304 14.46 6.304C13.332 6.304 12.24 6.304 11.184 6.304C10.152 6.304 9.192 6.304 8.304 6.304C7.44 6.304 6.708 6.304 6.108 6.304C5.076 6.304 4.02 6.328 2.94 6.376C1.86 6.4 0.984 6.436 0.312 6.484V0.831999Z" fill="white"/>
</svg>
