<svg width="22" height="18" viewBox="0 0 22 18" fill="none" xmlns="http://www.w3.org/2000/svg">
<path d="M16.9995 4.55955C17.7711 5.08306 17.8325 5.99639 17.109 6.58503L9.91132 12.4927C9.20119 13.0841 8.87167 12.8542 9.18798 12.0061L12.3698 3.36737C12.6862 2.51924 13.5811 2.24853 14.3527 2.77204L16.9968 4.57243L16.9995 4.55955Z" fill="white"/>
<path d="M20.7718 14.3778C20.9794 15.1755 20.4991 15.816 19.7036 15.7902L13.2309 15.6584C12.4327 15.6459 12.3288 15.2471 12.9988 14.7857L18.452 11.0307C19.1219 10.5694 19.8388 10.8444 20.0465 11.6421L20.7617 14.3617L20.7718 14.3778Z" fill="white"/>
<path d="M6.07916 2.22131C6.90001 2.14601 7.45395 2.72407 7.29918 3.50475L6.11738 9.87001C5.97537 10.6556 5.56494 10.6933 5.21861 9.95725L2.39963 3.96639C2.05329 3.23037 2.4411 2.56768 3.26195 2.49238L6.06169 2.22858L6.07916 2.22131Z" fill="white"/>
</svg>
